<?xml version="1.0" encoding="UTF-8" standalone="no"?>
<!-- Created with Inkscape (http://www.inkscape.org/) -->

<svg
   xmlns:dc="http://purl.org/dc/elements/1.1/"
   xmlns:cc="http://creativecommons.org/ns#"
   xmlns:rdf="http://www.w3.org/1999/02/22-rdf-syntax-ns#"
   xmlns:svg="http://www.w3.org/2000/svg"
   xmlns="http://www.w3.org/2000/svg"
   xmlns:xlink="http://www.w3.org/1999/xlink"
   xmlns:sodipodi="http://sodipodi.sourceforge.net/DTD/sodipodi-0.dtd"
   xmlns:inkscape="http://www.inkscape.org/namespaces/inkscape"
   version="1.0"
   id="svg2"
   sodipodi:version="0.32"
   inkscape:version="0.47 r22583"
   sodipodi:docname="python-logo-inkscape.svg"
   width="388.84pt"
   height="115.02pt">
  <metadata
     id="metadata371">
    <rdf:RDF>
      <cc:Work
         rdf:about="">
        <dc:format>image/svg+xml</dc:format>
        <dc:type
           rdf:resource="http://purl.org/dc/dcmitype/StillImage" />
        <dc:title></dc:title>
      </cc:Work>
    </rdf:RDF>
  </metadata>
  <sodipodi:namedview
     inkscape:window-height="882"
     inkscape:window-width="1233"
     inkscape:pageshadow="2"
     inkscape:pageopacity="0.0"
     guidetolerance="10.0"
     gridtolerance="10.0"
     objecttolerance="10.0"
     borderopacity="1.0"
     bordercolor="#666666"
     pagecolor="#ffffff"
     id="base"
     inkscape:zoom="2.1461642"
     inkscape:cx="250.73166"
     inkscape:cy="67.50975"
     inkscape:window-x="0"
     inkscape:window-y="24"
     inkscape:current-layer="svg2"
     width="210mm"
     height="40mm"
     units="mm"
     showgrid="false"
     inkscape:window-maximized="0" />
  <defs
     id="defs4">
    <inkscape:perspective
       sodipodi:type="inkscape:persp3d"
       inkscape:vp_x="0 : 71.887497 : 1"
       inkscape:vp_y="0 : 1000 : 0"
       inkscape:vp_z="486.04999 : 71.887497 : 1"
       inkscape:persp3d-origin="243.02499 : 47.924998 : 1"
       id="perspective2948" />
    <linearGradient
       id="linearGradient2795">
      <stop
         style="stop-color: rgb(184, 184, 184); stop-opacity: 0.498039;"
         offset="0"
         id="stop2797" />
      <stop
         style="stop-color: rgb(127, 127, 127); stop-opacity: 0;"
         offset="1"
         id="stop2799" />
    </linearGradient>
    <linearGradient
       id="linearGradient2787">
      <stop
         style="stop-color: rgb(127, 127, 127); stop-opacity: 0.5;"
         offset="0"
         id="stop2789" />
      <stop
         style="stop-color: rgb(127, 127, 127); stop-opacity: 0;"
         offset="1"
         id="stop2791" />
    </linearGradient>
    <linearGradient
       id="linearGradient3676">
      <stop
         style="stop-color: rgb(178, 178, 178); stop-opacity: 0.5;"
         offset="0"
         id="stop3678" />
      <stop
         style="stop-color: rgb(179, 179, 179); stop-opacity: 0;"
         offset="1"
         id="stop3680" />
    </linearGradient>
    <linearGradient
       id="linearGradient3236">
      <stop
         style="stop-color: rgb(244, 244, 244); stop-opacity: 1;"
         offset="0"
         id="stop3244" />
      <stop
         style="stop-color: white; stop-opacity: 1;"
         offset="1"
         id="stop3240" />
    </linearGradient>
    <linearGradient
       id="linearGradient4671">
      <stop
         style="stop-color: rgb(255, 212, 59); stop-opacity: 1;"
         offset="0"
         id="stop4673" />
      <stop
         style="stop-color: rgb(255, 232, 115); stop-opacity: 1;"
         offset="1"
         id="stop4675" />
    </linearGradient>
    <linearGradient
       id="linearGradient4689">
      <stop
         style="stop-color: rgb(90, 159, 212); stop-opacity: 1;"
         offset="0"
         id="stop4691" />
      <stop
         style="stop-color: rgb(48, 105, 152); stop-opacity: 1;"
         offset="1"
         id="stop4693" />
    </linearGradient>
    <linearGradient
       x1="224.23996"
       y1="144.75717"
       x2="-65.308502"
       y2="144.75717"
       id="linearGradient2987"
       xlink:href="#linearGradient4671"
       gradientUnits="userSpaceOnUse"
       gradientTransform="translate(100.27, 99.6112)" />
    <linearGradient
       x1="172.94208"
       y1="77.475983"
       x2="26.670298"
       y2="76.313133"
       id="linearGradient2990"
       xlink:href="#linearGradient4689"
       gradientUnits="userSpaceOnUse"
       gradientTransform="translate(100.27, 99.6112)" />
    <linearGradient
       inkscape:collect="always"
       xlink:href="#linearGradient4689"
       id="linearGradient2587"
       gradientUnits="userSpaceOnUse"
       gradientTransform="translate(100.27, 99.6112)"
       x1="172.94208"
       y1="77.475983"
       x2="26.670298"
       y2="76.313133" />
    <linearGradient
       inkscape:collect="always"
       xlink:href="#linearGradient4671"
       id="linearGradient2589"
       gradientUnits="userSpaceOnUse"
       gradientTransform="translate(100.27, 99.6112)"
       x1="224.23996"
       y1="144.75717"
       x2="-65.308502"
       y2="144.75717" />
    <linearGradient
       inkscape:collect="always"
       xlink:href="#linearGradient4689"
       id="linearGradient2248"
       gradientUnits="userSpaceOnUse"
       gradientTransform="translate(100.27, 99.6112)"
       x1="172.94208"
       y1="77.475983"
       x2="26.670298"
       y2="76.313133" />
    <linearGradient
       inkscape:collect="always"
       xlink:href="#linearGradient4671"
       id="linearGradient2250"
       gradientUnits="userSpaceOnUse"
       gradientTransform="translate(100.27, 99.6112)"
       x1="224.23996"
       y1="144.75717"
       x2="-65.308502"
       y2="144.75717" />
    <linearGradient
       inkscape:collect="always"
       xlink:href="#linearGradient4671"
       id="linearGradient2255"
       gradientUnits="userSpaceOnUse"
       gradientTransform="matrix(0.562541, 0, 0, 0.567972, -11.5974, -7.60954)"
       x1="224.23996"
       y1="144.75717"
       x2="-65.308502"
       y2="144.75717" />
    <linearGradient
       inkscape:collect="always"
       xlink:href="#linearGradient4689"
       id="linearGradient2258"
       gradientUnits="userSpaceOnUse"
       gradientTransform="matrix(0.562541, 0, 0, 0.567972, -11.5974, -7.60954)"
       x1="172.94208"
       y1="76.176224"
       x2="26.670298"
       y2="76.313133" />
    <radialGradient
       inkscape:collect="always"
       xlink:href="#linearGradient2795"
       id="radialGradient2801"
       cx="61.518883"
       cy="132.28575"
       fx="61.518883"
       fy="132.28575"
       r="29.036913"
       gradientTransform="matrix(1, 0, 0, 0.177966, 0, 108.743)"
       gradientUnits="userSpaceOnUse" />
    <linearGradient
       inkscape:collect="always"
       xlink:href="#linearGradient4671"
       id="linearGradient1475"
       gradientUnits="userSpaceOnUse"
       gradientTransform="matrix(0.562541, 0, 0, 0.567972, -9.39975, -5.30532)"
       x1="150.96111"
       y1="192.35176"
       x2="112.03144"
       y2="137.27299" />
    <linearGradient
       inkscape:collect="always"
       xlink:href="#linearGradient4689"
       id="linearGradient1478"
       gradientUnits="userSpaceOnUse"
       gradientTransform="matrix(0.562541, 0, 0, 0.567972, -9.39975, -5.30532)"
       x1="26.648937"
       y1="20.603781"
       x2="135.66525"
       y2="114.39767" />
    <radialGradient
       inkscape:collect="always"
       xlink:href="#linearGradient2795"
       id="radialGradient1480"
       gradientUnits="userSpaceOnUse"
       gradientTransform="matrix(2.38272e-08, -0.296405, 1.43676, 4.68367e-07, -128.544, 150.52)"
       cx="61.518883"
       cy="132.28575"
       fx="61.518883"
       fy="132.28575"
       r="29.036913" />
  </defs>
  <path
     id="path46"
     style="fill: rgb(100, 100, 100); fill-opacity: 1;"
     d="M 184.61344,61.929363 C 184.61344,47.367213 180.46118,39.891193 172.15666,39.481813 C 168.85239,39.325863 165.62611,39.852203 162.48754,41.070593 C 159.98254,41.967323 158.2963,42.854313 157.40931,43.751043 L 157.40931,78.509163 C 162.72147,81.842673 167.43907,83.392453 171.55234,83.148783 C 180.25649,82.573703 184.61344,75.507063 184.61344,61.929363 z M 194.85763,62.533683 C 194.85763,69.931723 193.12265,76.072393 189.63319,80.955683 C 185.7441,86.482283 180.35396,89.328433 173.46277,89.484393 C 168.26757,89.650093 162.91642,88.022323 157.40931,84.610843 L 157.40931,116.20116 L 148.50047,113.02361 L 148.50047,42.903043 C 149.96253,41.109583 151.84372,39.569543 154.12454,38.263433 C 159.42696,35.173603 165.86978,33.584823 173.45302,33.506853 L 173.57973,33.633563 C 180.50991,33.545833 185.85132,36.391993 189.60395,42.162263 C 193.10315,47.454933 194.85763,54.238913 194.85763,62.533683 z " />
  <path
     id="path48"
     style="fill: rgb(100, 100, 100); fill-opacity: 1;"
     d="M 249.30487,83.265743 C 249.30487,93.188283 248.31067,100.05998 246.32227,103.88084 C 244.32411,107.7017 240.52275,110.75254 234.90842,113.02361 C 230.35653,114.81707 225.43425,115.79178 220.15133,115.95748 L 218.67952,110.34316 C 224.05016,109.61213 227.83204,108.88109 230.02513,108.15006 C 234.34309,106.688 237.30621,104.44617 238.93397,101.44406 C 240.24008,98.997543 240.88339,94.328693 240.88339,87.418003 L 240.88339,85.098203 C 234.79146,87.866373 228.40711,89.240713 221.73036,89.240713 C 217.34417,89.240713 213.47457,87.866373 210.14107,85.098203 C 206.39818,82.086343 204.52674,78.265483 204.52674,73.635623 L 204.52674,36.557693 L 213.43558,33.506853 L 213.43558,70.828453 C 213.43558,74.815013 214.7222,77.885353 217.29543,80.039463 C 219.86866,82.193563 223.20217,83.226753 227.2862,83.148783 C 231.37023,83.061053 235.74667,81.482023 240.39603,78.392203 L 240.39603,34.851953 L 249.30487,34.851953 L 249.30487,83.265743 z " />
  <path
     style="fill: url(&quot;#linearGradient1478&quot;) rgb(0, 0, 0); fill-opacity: 1;"
     d="M 60.510156,6.3979729 C 55.926503,6.4192712 51.549217,6.8101906 47.697656,7.4917229 C 36.35144,9.4962267 34.291407,13.691825 34.291406,21.429223 L 34.291406,31.647973 L 61.103906,31.647973 L 61.103906,35.054223 L 34.291406,35.054223 L 24.228906,35.054223 C 16.436447,35.054223 9.6131468,39.73794 7.4789058,48.647973 C 5.0170858,58.860939 4.9078907,65.233996 7.4789058,75.897973 C 9.3848341,83.835825 13.936449,89.491721 21.728906,89.491723 L 30.947656,89.491723 L 30.947656,77.241723 C 30.947656,68.391821 38.6048,60.585475 47.697656,60.585473 L 74.478906,60.585473 C 81.933857,60.585473 87.885159,54.447309 87.885156,46.960473 L 87.885156,21.429223 C 87.885156,14.162884 81.755176,8.7044455 74.478906,7.4917229 C 69.872919,6.7249976 65.093809,6.3766746 60.510156,6.3979729 z M 46.010156,14.616723 C 48.779703,14.616723 51.041406,16.915369 51.041406,19.741723 C 51.041404,22.558059 48.779703,24.835473 46.010156,24.835473 C 43.23068,24.835472 40.978906,22.558058 40.978906,19.741723 C 40.978905,16.91537 43.23068,14.616723 46.010156,14.616723 z "
     id="path1948" />
  <path
     style="fill: url(&quot;#linearGradient1475&quot;) rgb(0, 0, 0); fill-opacity: 1;"
     d="M 91.228906,35.054223 L 91.228906,46.960473 C 91.228906,56.191228 83.403011,63.960472 74.478906,63.960473 L 47.697656,63.960473 C 40.361823,63.960473 34.291407,70.238956 34.291406,77.585473 L 34.291406,103.11672 C 34.291406,110.38306 40.609994,114.65704 47.697656,116.74172 C 56.184987,119.23733 64.323893,119.68835 74.478906,116.74172 C 81.229061,114.78733 87.885159,110.85411 87.885156,103.11672 L 87.885156,92.897973 L 61.103906,92.897973 L 61.103906,89.491723 L 87.885156,89.491723 L 101.29141,89.491723 C 109.08387,89.491723 111.98766,84.056315 114.69765,75.897973 C 117.49698,67.499087 117.37787,59.422197 114.69765,48.647973 C 112.77187,40.890532 109.09378,35.054223 101.29141,35.054223 L 91.228906,35.054223 z M 76.166406,99.710473 C 78.945884,99.710476 81.197656,101.98789 81.197656,104.80422 C 81.197654,107.63057 78.945881,109.92922 76.166406,109.92922 C 73.396856,109.92922 71.135156,107.63057 71.135156,104.80422 C 71.135158,101.98789 73.396853,99.710473 76.166406,99.710473 z "
     id="path1950" />
  <path
     sodipodi:type="arc"
     style="opacity: 0.44382; fill: url(&quot;#radialGradient1480&quot;) rgb(0, 0, 0); fill-opacity: 1; fill-rule: nonzero; stroke: none; stroke-width: 20; stroke-miterlimit: 4; stroke-dasharray: none; stroke-opacity: 1;"
     id="path1894"
     sodipodi:cx="61.518883"
     sodipodi:cy="132.28575"
     sodipodi:rx="48.948284"
     sodipodi:ry="8.6066771"
     d="M 110.46717 132.28575 A 48.948284 8.6066771 0 1 1  12.570599,132.28575 A 48.948284 8.6066771 0 1 1  110.46717 132.28575 z"
     transform="matrix(0.73406, 0, 0, 0.809524, 16.2496, 27.0093)" />
  <g
     transform="scale(0.90968084,1.0992866)"
     style="font-size:55.12807465000000207px;font-style:normal;font-weight:normal;fill:#666666;fill-opacity:1;stroke:none;font-family:Bitstream Vera Sans"
     id="text2950">
    <path
       d="m 278.98821,46.819537 c 0,-4.737533 0.63167,-9.015697 1.89503,-12.834504 1.29206,-3.818721 3.20144,-7.063234 5.72815,-9.733551 2.5554,-2.698922 5.71378,-4.766223 9.47514,-6.201908 3.76132,-1.464279 8.12562,-2.196448 13.09292,-2.196509 3.73259,6.1e-5 7.00581,0.330255 9.81968,0.990582 2.81378,0.660449 5.25435,1.607962 7.3217,2.842542 2.06725,1.234695 3.81871,2.742102 5.2544,4.522224 1.43556,1.751517 2.65585,3.73268 3.66084,5.943496 l -6.8141,-1.065193 c -3.30123,-0.09604 -4.76719,-1.957303 -7.52781,-3.801582 -1.4931,-0.861323 -3.2302,-1.521711 -5.21132,-1.981165 -1.9525,-0.488059 -4.19207,-0.732115 -6.71874,-0.73217 -3.67523,5.5e-5 -6.87668,0.574305 -9.60434,1.722752 -2.699,1.148554 -4.93858,2.785167 -6.71874,4.909844 -1.78019,2.124774 -3.11532,4.680187 -4.0054,7.666248 -0.86139,2.986141 -1.29207,6.302436 -1.29206,9.948894 -1e-5,3.64652 0.47374,6.991527 1.42127,10.035033 0.9475,3.014834 2.35441,5.627672 4.22074,7.838523 1.8663,2.182163 4.17766,3.890557 6.93408,5.125188 2.78509,1.205933 6.00089,1.808895 9.64741,1.80889 2.38311,5e-6 4.57961,-0.200982 6.58953,-0.602964 2.00984,-0.401968 3.81872,-0.918794 5.42667,-1.550477 1.63657,-0.660379 3.07219,-1.378192 4.30688,-2.15344 1.23459,-0.80394 2.26824,-1.607891 3.10096,-2.411853 l 0,-10.939477 -12.49766,0 -5.63431,-6.89101 25.71208,0 0,20.931441 c -1.34955,1.37821 -2.9431,2.698985 -4.78064,3.96233 -1.80895,1.234643 -3.84753,2.325719 -6.11577,3.273229 -2.26834,0.947515 -4.75197,1.694041 -7.45091,2.239578 -2.69901,0.545538 -5.58462,0.818307 -8.65683,0.818308 -5.11086,-10e-7 -9.57565,-0.775239 -13.39439,-2.325716 -3.81879,-1.579186 -7.00588,-3.761337 -9.56128,-6.546459 -2.52671,-2.813817 -4.43609,-6.144469 -5.72815,-9.991963 -1.26336,-3.847458 -1.89503,-8.053841 -1.89503,-12.619161"
       style="font-size:88.20491791000000603px;font-variant:normal;font-stretch:normal;font-family:Liberation Sans;-inkscape-font-specification:Liberation Sans;fill:#666666"
       id="path2964"
       sodipodi:nodetypes="ccscssscccccscscscccsscccccccccssscccc" />
    <path
       d="m 393.24976,77.44146 -15.76318,-25.195253 -18.90721,0 0,25.195253 -8.22614,-5.086363 0,-55.597587 28.55462,0 c 3.44546,6e-5 6.48899,0.402036 9.13058,1.205926 2.67022,0.775298 4.9098,1.909442 6.71874,3.402436 1.80883,1.493107 3.18704,3.316351 4.1346,5.469739 0.94746,2.153489 1.42122,4.579696 1.42127,7.278628 -5e-5,1.923782 -0.28718,3.818807 -0.86137,5.685083 -0.5456,1.866351 -1.42133,3.574745 -2.6272,5.125188 -1.20598,1.550508 -2.7421,2.88564 -4.60836,4.005399 -1.86636,1.119816 -4.10594,1.90941 -6.71874,2.368784 l 17.22753,26.142767 -9.47514,0 m -1.20593,-43.241083 c -5e-5,-1.837558 -0.31588,-3.431102 -0.94751,-4.780638 -0.63172,-1.34944 -1.55052,-2.469228 -2.7564,-3.359367 -1.20597,-0.918749 -2.67031,-1.593493 -4.39302,-2.024234 -1.72279,-0.459346 -3.67524,-0.689047 -5.85736,-0.689101 l -19.51017,0 0,22.39578 19.85472,0 c 2.35439,3.2e-5 4.39298,-0.287093 6.11577,-0.861376 1.72271,-0.60293 3.12962,-1.421237 4.22074,-2.454922 1.11975,-1.033615 1.93805,-2.253897 2.45493,-3.660849 0.54549,-1.406874 0.81825,-2.928637 0.8183,-4.565293"
       style="font-size:88.20491791000000603px;font-variant:normal;font-stretch:normal;font-family:Liberation Sans;-inkscape-font-specification:Liberation Sans;fill:#666666"
       id="path2966"
       sodipodi:nodetypes="ccccccccssscssccccscccccccccc" />
    <path
       d="m 457.1208,73.202824 -6.93408,-13.505713 -27.65018,0 -6.97714,17.744349 -8.52763,0 24.76457,-60.68395 9.34593,0 24.37694,60.68395 M 439.93634,33.252863 c -0.45943,-1.148456 -0.90448,-2.311313 -1.33513,-3.488573 -0.40201,-1.177166 -0.76091,-2.239528 -1.07672,-3.187092 -0.31587,-0.976175 -0.58864,-1.780125 -0.81831,-2.411853 -0.20102,-0.660335 -0.31587,-1.06231 -0.34455,-1.205927 -0.0575,0.143617 -0.18666,0.545592 -0.38762,1.205927 -0.20102,0.660441 -0.47378,1.478747 -0.81831,2.454922 -0.31586,0.976276 -0.68912,2.052995 -1.11979,3.23016 -0.402,1.177261 -0.81833,2.340117 -1.24899,3.488574 l -7.75239,19.940858 22.69727,0 -7.79546,-20.026996"
       style="font-size:88.20491791000000603px;font-variant:normal;font-stretch:normal;font-family:Liberation Sans;-inkscape-font-specification:Liberation Sans;fill:#666666"
       id="path2968"
       sodipodi:nodetypes="ccccccccccsccscccccc" />
    <path
       d="m 516.90031,77.44146 -48.3232,0 0,-6.15884 36.95303,-47.806376 -28.68691,0 -5.1221,-6.718734 43.15494,0 0,5.986564 -36.95303,47.978652 34.36738,0 4.60989,6.718734"
       style="font-size:88.20491791000000603px;font-variant:normal;font-stretch:normal;font-family:Liberation Sans;-inkscape-font-specification:Liberation Sans;fill:#666666"
       id="path2970"
       sodipodi:nodetypes="ccccccccccc" />
  </g>
</svg>
